# xmcd CD database file
#
# Track frame offsets:
#	182
#	25677
#	47292
#	70257
#	88382
#	116447
#	148705
#	168935
#	190587
#	206927
#	239945
#	245475
#	275340
#
# Disc length: 3773 seconds
#
# Revision: 8
# Processed by: cddbd v1.5.2PL0 Copyright (c) Steve Scherf et al.
# Submitted via: CDex 2.09
#
DISCID=bc0ebb0d
DTITLE=Savatage - Ghost in the ruins - A tribute to Criss Oliva
DYEAR=1995
DGENRE=Power Metal
TTITLE0=City beneath the surface  live
TTITLE1=24 hours ago  live
TTITLE2=Legions  live
TTITLE3=Strange wings  live
TTITLE4=Gutter ballet  live
TTITLE5=When the crowds are gone  live
TTITLE6=Of rage and war  live
TTITLE7=The dungeons are calling  live
TTITLE8=Sirens  live
TTITLE9=Hounds  live
TTITLE10=Criss intro  live
TTITLE11=Hall of the Mountain King  live
TTITLE12=Post script  live
EXTD=YEAR: 1995
EXTT0=NYC - The Ritz, 1990
EXTT1=Spectrum Coliseum - Philadelphia, 1988
EXTT2=Spectrum Coliseum - Philadelphia, 1988
EXTT3=Spectrum Coliseum - Philadelphia, 1988
EXTT4=Los Angeles Palace - 1990
EXTT5=Hollywood Palace - 1990
EXTT6=Brooklyn-Lamour - 1990
EXTT7=Long Island - Naussau Coliseum - 1988
EXTT8=Long Island - Naussau Coliseum - 1988
EXTT9=Brooklyn-Lamour-1990
EXTT10=Cleveland-Agora-1987
EXTT11=Brooklyn-Lamour-1990
EXTT12=Sound Check Hollywood Palace - 1990
PLAYORDER=
